<svg width="40" height="40" viewBox="0 0 40 40" fill="none" xmlns="http://www.w3.org/2000/svg">
    <!-- Make a fish icon -->
    <path d="M20 0C8.9543 0 0 8.9543 0 20C0 31.0457 8.9543 40 20 40C31.0457 40 40 31.0457 40 20C40 8.9543 31.0457 0 20 0ZM20 37.5C10.8355 37.5 3.5 30.1645 3.5 21C3.5 11.8355 10.8355 4.5 20 4.5C29.1645 4.5 36.5 11.8355 36.5 21C36.5 30.1645 29.1645 37.5 20 37.5Z" fill="#FF0000"/>
    <path d="M20 10C17.2386 10 15 12.2386 15 15C15 17.7614 17.2386 20 20 20C22.7614 20 25 17.7614 25 15C25 12.2386 22.7614 10 20 10ZM20 17.5C18.6193 17.5 17.5 16.3807 17.5 15C17.5 13.6193 18.6193 12.5 20 12.5C21.3807 12.5 22.5 13.6193 22.5 15C22.5 16.3807 21.3807 17.5 20 17.5Z" fill="#FF0000"/>
</svg>